<svg xmlns="http://www.w3.org/2000/svg" xmlns:xlink="http://www.w3.org/1999/xlink" width="500" zoomAndPan="magnify" viewBox="0 0 375 374.999991" height="500" preserveAspectRatio="xMidYMid meet" version="1.0"><defs><g/><clipPath id="95b668200c"><path d="M 80.898438 80.898438 L 294.101562 80.898438 L 294.101562 294.101562 L 80.898438 294.101562 Z M 80.898438 80.898438 " clip-rule="nonzero"/></clipPath><clipPath id="85a891a558"><path d="M 187.5 80.898438 C 128.625 80.898438 80.898438 128.625 80.898438 187.5 C 80.898438 246.375 128.625 294.101562 187.5 294.101562 C 246.375 294.101562 294.101562 246.375 294.101562 187.5 C 294.101562 128.625 246.375 80.898438 187.5 80.898438 Z M 187.5 80.898438 " clip-rule="nonzero"/></clipPath><clipPath id="67b6aaf2a6"><path d="M 0.898438 0.898438 L 214.101562 0.898438 L 214.101562 214.101562 L 0.898438 214.101562 Z M 0.898438 0.898438 " clip-rule="nonzero"/></clipPath><clipPath id="9ed801c88a"><path d="M 107.5 0.898438 C 48.625 0.898438 0.898438 48.625 0.898438 107.5 C 0.898438 166.375 48.625 214.101562 107.5 214.101562 C 166.375 214.101562 214.101562 166.375 214.101562 107.5 C 214.101562 48.625 166.375 0.898438 107.5 0.898438 Z M 107.5 0.898438 " clip-rule="nonzero"/></clipPath><clipPath id="c9f205dbdf"><rect x="0" width="215" y="0" height="215"/></clipPath><clipPath id="844f130ede"><path d="M 235.878906 197.015625 L 269.035156 197.015625 L 269.035156 230.171875 L 235.878906 230.171875 Z M 235.878906 197.015625 " clip-rule="nonzero"/></clipPath><clipPath id="aaf24f9fc4"><path d="M 252.457031 197.015625 C 243.300781 197.015625 235.878906 204.4375 235.878906 213.59375 C 235.878906 222.75 243.300781 230.171875 252.457031 230.171875 C 261.613281 230.171875 269.035156 222.75 269.035156 213.59375 C 269.035156 204.4375 261.613281 197.015625 252.457031 197.015625 Z M 252.457031 197.015625 " clip-rule="nonzero"/></clipPath><clipPath id="b577e0ad8f"><path d="M 0.878906 0.015625 L 34.035156 0.015625 L 34.035156 33.171875 L 0.878906 33.171875 Z M 0.878906 0.015625 " clip-rule="nonzero"/></clipPath><clipPath id="f7f1a3e842"><path d="M 17.457031 0.015625 C 8.300781 0.015625 0.878906 7.4375 0.878906 16.59375 C 0.878906 25.75 8.300781 33.171875 17.457031 33.171875 C 26.613281 33.171875 34.035156 25.75 34.035156 16.59375 C 34.035156 7.4375 26.613281 0.015625 17.457031 0.015625 Z M 17.457031 0.015625 " clip-rule="nonzero"/></clipPath><clipPath id="97b99758ad"><rect x="0" width="35" y="0" height="34"/></clipPath></defs><g clip-path="url(#95b668200c)"><g clip-path="url(#85a891a558)"><g transform="matrix(1, 0, 0, 1, 80, 80)"><g clip-path="url(#c9f205dbdf)"><g clip-path="url(#67b6aaf2a6)"><g clip-path="url(#9ed801c88a)"><path fill="#ff751f" d="M 0.898438 0.898438 L 214.101562 0.898438 L 214.101562 214.101562 L 0.898438 214.101562 Z M 0.898438 0.898438 " fill-opacity="1" fill-rule="nonzero"/></g></g></g></g></g></g><g fill="#f6f3e4" fill-opacity="1"><g transform="translate(115.569371, 208.407306)"><g><path d="M 30.78125 0 L 30.78125 -12.171875 L 14.9375 -12.171875 C 12.65625 -12.171875 10.582031 -12.695312 8.71875 -13.75 C 6.851562 -14.8125 5.378906 -16.21875 4.296875 -17.96875 C 3.210938 -19.71875 2.671875 -21.648438 2.671875 -23.765625 C 2.671875 -24.878906 2.804688 -25.992188 3.078125 -27.109375 C 3.359375 -28.222656 3.722656 -29.25 4.171875 -30.1875 L 18.765625 -58.390625 L 33.859375 -58.390625 L 17.015625 -26.359375 C 16.847656 -26.078125 16.734375 -25.851562 16.671875 -25.6875 C 16.617188 -25.519531 16.59375 -25.296875 16.59375 -25.015625 C 16.59375 -24.679688 16.71875 -24.40625 16.96875 -24.1875 C 17.21875 -23.96875 17.539062 -23.859375 17.9375 -23.859375 L 30.78125 -23.859375 L 30.78125 -42.203125 L 44.28125 -42.203125 L 44.28125 -23.859375 L 51.71875 -23.859375 L 51.71875 -12.171875 L 44.28125 -12.171875 L 44.28125 0 Z M 30.78125 0 "/></g></g></g><g fill="#f6f3e4" fill-opacity="1"><g transform="translate(163.26753, 208.407306)"><g><path d="M 35.109375 0 C 31.554688 0 28.429688 -0.789062 25.734375 -2.375 C 23.035156 -3.957031 20.921875 -6.082031 19.390625 -8.75 C 17.859375 -11.425781 17.09375 -14.40625 17.09375 -17.6875 L 17.09375 -46.703125 L 1.25 -46.703125 L 1.25 -58.390625 L 46.875 -58.390625 L 46.875 -46.703125 L 31.109375 -46.703125 L 31.109375 -16.4375 C 31.109375 -15.15625 31.550781 -14.039062 32.4375 -13.09375 C 33.332031 -12.144531 34.445312 -11.671875 35.78125 -11.671875 L 40.375 -11.671875 L 40.375 0 Z M 35.109375 0 "/></g></g></g><g fill="#f6f3e4" fill-opacity="1"><g transform="translate(204.544616, 208.407306)"><g><path d="M 5.09375 0 L 5.09375 -58.390625 L 30.1875 -58.390625 C 34.082031 -58.390625 37.65625 -57.5 40.90625 -55.71875 C 44.164062 -53.9375 46.765625 -51.472656 48.703125 -48.328125 C 50.648438 -45.191406 51.625 -41.566406 51.625 -37.453125 C 51.625 -33.335938 50.648438 -29.679688 48.703125 -26.484375 C 46.765625 -23.285156 44.179688 -20.796875 40.953125 -19.015625 C 37.722656 -17.234375 34.132812 -16.34375 30.1875 -16.34375 L 19.09375 -16.34375 L 19.09375 0 Z M 19.09375 -28.109375 L 28.609375 -28.109375 C 30.273438 -28.109375 31.773438 -28.46875 33.109375 -29.1875 C 34.441406 -29.914062 35.523438 -30.972656 36.359375 -32.359375 C 37.191406 -33.753906 37.609375 -35.421875 37.609375 -37.359375 C 37.609375 -39.304688 37.191406 -40.972656 36.359375 -42.359375 C 35.523438 -43.753906 34.425781 -44.828125 33.0625 -45.578125 C 31.707031 -46.328125 30.222656 -46.703125 28.609375 -46.703125 L 19.09375 -46.703125 Z M 19.09375 -28.109375 "/></g></g></g><g clip-path="url(#844f130ede)"><g clip-path="url(#aaf24f9fc4)"><g transform="matrix(1, 0, 0, 1, 235, 197)"><g clip-path="url(#97b99758ad)"><g clip-path="url(#b577e0ad8f)"><g clip-path="url(#f7f1a3e842)"><path fill="#f6f3e4" d="M 0.878906 0.015625 L 34.035156 0.015625 L 34.035156 33.171875 L 0.878906 33.171875 Z M 0.878906 0.015625 " fill-opacity="1" fill-rule="nonzero"/></g></g></g></g></g></g></svg>